<svg xmlns="http://www.w3.org/2000/svg" xmlns:xlink="http://www.w3.org/1999/xlink" style="display: none">

  <symbol id="mensaje" viewBox="0 0 512.000000 512.000000" >
	<g transform="translate(0.000000,512.000000) scale(0.100000,-0.100000)"
    fill="#000000" stroke="none">
    <path d="M0 2560 l0 -2560 2560 0 2560 0 0 2560 0 2560 -2560 0 -2560 0 0
    -2560z"/>
    </g>
  </symbol>

  <symbol id="cart" viewBox="0 0 512.000000 512.000000" >
	<g transform="translate(0.000000,512.000000) scale(0.100000,-0.100000)"
    fill="#000000" stroke="none">
    <path d="M255 4946 c-94 -41 -124 -168 -58 -247 45 -53 73 -59 276 -59 l183 0
    138 -1312 c76 -722 142 -1333 147 -1358 27 -122 123 -247 235 -307 125 -66 45
    -63 1479 -63 1431 0 1355 -3 1476 61 32 17 83 57 113 88 102 108 94 80 316
    1113 114 531 200 956 200 986 0 113 -73 227 -178 279 l-57 28 -1747 3 -1747 2
    -5 33 c-3 17 -19 167 -36 332 -17 165 -34 309 -37 320 -10 36 -55 87 -89 101
    -47 20 -564 20 -609 0z m4181 -1133 c-207 -984 -388 -1801 -404 -1822 -10 -14
    -31 -34 -46 -45 -27 -21 -33 -21 -1304 -24 -702 -1 -1292 0 -1310 3 -39 7 -95
    54 -111 92 -6 16 -51 417 -101 893 -49 476 -92 880 -95 898 l-6 32 1691 0
    1692 0 -6 -27z"/>
    <path d="M1481 1264 c-253 -68 -410 -331 -346 -579 67 -256 329 -415 580 -350
    256 67 415 329 350 578 -67 259 -333 419 -584 351z m182 -318 c103 -43 128
    -177 48 -257 -65 -65 -157 -65 -222 0 -124 123 13 325 174 257z"/>
    <path d="M3401 1264 c-253 -68 -410 -331 -346 -579 67 -256 329 -415 580 -350
    256 67 415 329 350 578 -67 259 -333 419 -584 351z m182 -318 c103 -43 128
    -177 48 -257 -65 -65 -157 -65 -222 0 -124 123 13 325 174 257z"/>
    </g>
  </symbol>

  <symbol id="phone" viewBox="0 0 512.000000 512.000000" >
	<g transform="translate(0.000000,512.000000) scale(0.100000,-0.100000)"
    fill="#000000" stroke="none">
    <path d="M916 5105 c-81 -21 -164 -67 -249 -140 -94 -81 -431 -424 -486 -495
    -223 -285 -227 -728 -11 -1300 263 -699 756 -1407 1380 -1982 860 -793 2012
    -1306 2605 -1162 88 21 234 89 301 140 68 51 520 515 562 576 78 113 108 264
    78 392 -34 143 -45 156 -480 592 -439 439 -453 450 -598 480 -115 24 -232 3
    -345 -62 -26 -16 -150 -129 -275 -253 l-227 -224 -73 38 c-179 93 -311 182
    -508 344 -202 166 -484 457 -640 661 -113 148 -279 421 -280 458 0 7 78 89
    173 182 200 195 279 286 324 372 56 109 67 247 28 361 -39 116 -77 160 -459
    543 -378 378 -436 428 -544 465 -75 27 -199 33 -276 14z m232 -281 c28 -16
    188 -167 403 -383 389 -390 404 -408 403 -511 0 -91 -24 -123 -285 -384 -132
    -131 -247 -252 -255 -269 -12 -21 -15 -50 -12 -99 3 -60 11 -83 72 -204 138
    -274 320 -515 621 -823 299 -306 597 -534 904 -692 109 -56 130 -64 180 -63
    34 0 70 7 91 18 19 10 143 126 275 257 170 169 253 244 285 258 60 27 138 27
    193 0 60 -30 767 -736 798 -798 17 -33 24 -63 24 -106 0 -103 -21 -131 -305
    -416 -281 -282 -307 -301 -457 -335 -145 -32 -388 -6 -634 67 -375 111 -879
    377 -1294 683 -799 588 -1485 1487 -1770 2318 -136 395 -151 678 -47 888 32
    67 62 101 270 312 128 130 251 248 272 263 90 62 182 69 268 19z"/>
    </g>
  </symbol>

  <symbol id="user" viewBox="0 0 512.000000 512.000000" >
	<g transform="translate(0.000000,512.000000) scale(0.100000,-0.100000)"
        fill="#000000" stroke="none">
        <path d="M2380 5114 c-19 -2 -78 -9 -130 -14 -330 -36 -695 -160 -990 -336
        -375 -224 -680 -529 -904 -904 -175 -292 -291 -632 -338 -990 -16 -123 -16
        -497 0 -620 82 -623 356 -1150 820 -1581 256 -239 575 -425 922 -539 274 -91
        491 -124 800 -124 228 0 329 9 530 50 689 141 1304 583 1674 1204 175 292 291
        632 338 990 16 123 16 497 0 620 -47 358 -163 698 -338 990 -224 375 -529 680
        -904 904 -289 173 -634 291 -980 336 -88 12 -438 21 -500 14z m385 -304 c583
        -54 1146 -347 1517 -790 487 -581 652 -1337 452 -2067 -77 -281 -213 -550
        -398 -785 -34 -43 -63 -78 -66 -78 -3 0 -19 43 -35 96 -85 284 -283 589 -512
        790 -144 126 -341 247 -518 319 l-40 16 35 26 c63 47 216 208 253 266 142 221
        202 460 177 704 -37 366 -251 681 -575 850 -674 350 -1488 -91 -1565 -850 -20
        -197 18 -404 106 -579 71 -141 189 -287 305 -375 27 -20 49 -40 49 -43 0 -3
        -33 -18 -73 -34 -270 -109 -540 -321 -729 -571 -109 -145 -213 -349 -264 -520
        -15 -52 -31 -95 -34 -95 -8 0 -122 148 -179 233 -63 94 -174 310 -219 425 -78
        198 -127 427 -144 675 -52 717 271 1445 839 1898 459 366 1041 542 1618 489z
        m5 -860 c257 -73 458 -274 536 -535 35 -119 37 -289 6 -406 -93 -347 -395
        -579 -752 -579 -357 0 -659 232 -752 579 -31 117 -29 287 6 406 88 296 316
        497 636 559 58 11 247 -3 320 -24z m-5 -1851 c310 -40 584 -178 821 -414 178
        -178 290 -358 362 -585 26 -81 67 -271 59 -275 -1 -1 -31 -24 -67 -52 -308
        -240 -679 -394 -1095 -454 -116 -17 -454 -17 -570 0 -416 60 -787 214 -1095
        454 -36 28 -66 51 -67 52 -2 1 4 39 12 84 91 517 461 950 961 1124 221 77 431
        98 679 66z"/>
    </g>
  </symbol>

</svg>