<svg xmlns="http://www.w3.org/2000/svg" width="20.029" height="19.855" viewBox="0 0 20.029 19.855">
  <g id="Grupo_3536" data-name="Grupo 3536" transform="translate(-1682.265 -732.033)">
    <g id="Grupo_3177" data-name="Grupo 3177">
      <path id="Trazado_7889" data-name="Trazado 7889" d="M1698.339,749.032a1.985,1.985,0,0,1-1.983,1.983H1685.12a1.985,1.985,0,0,1-1.983-1.983V737.8a1.986,1.986,0,0,1,1.983-1.983h9.471l.873-.873H1685.12a2.859,2.859,0,0,0-2.855,2.856v11.235a2.859,2.859,0,0,0,2.855,2.856h11.236a2.859,2.859,0,0,0,2.855-2.856V739.009l-.872.873Z" fill="#fff"/>
      <path id="Trazado_7890" data-name="Trazado 7890" d="M1701.848,732.466a1.563,1.563,0,0,0-2.16,0l-8.739,8.738c-.09.09-.328.328-.486,2.173l-.045.518.518-.046c1.849-.163,2.083-.4,2.171-.485l8.74-8.74A1.527,1.527,0,0,0,1701.848,732.466Zm-.617,1.542-8.71,8.709a6.381,6.381,0,0,1-1.134.208,5.98,5.98,0,0,1,.208-1.132l8.711-8.711a.67.67,0,0,1,.925,0A.656.656,0,0,1,1701.231,734.008Z" fill="#fff"/>
    </g>
  </g>
</svg>
