<svg xmlns="http://www.w3.org/2000/svg" width="18.095" height="20" viewBox="0 0 18.095 20">
  <g id="Grupo_3531" data-name="Grupo 3531" transform="translate(-1403.93 -698.871)">
    <g id="Grupo_3373" data-name="Grupo 3373">
      <path id="Trazado_8500" data-name="Trazado 8500" d="M1421.549,703.633h-17.143a.477.477,0,0,1,0-.953h17.143a.477.477,0,0,1,0,.953Z" fill="#fff"/>
    </g>
    <g id="Grupo_3374" data-name="Grupo 3374">
      <path id="Trazado_8501" data-name="Trazado 8501" d="M1417.74,718.871h-9.524a2.384,2.384,0,0,1-2.381-2.381V703.156a.476.476,0,1,1,.952,0V716.49a1.43,1.43,0,0,0,1.429,1.428h9.524a1.43,1.43,0,0,0,1.428-1.428V703.156a.476.476,0,1,1,.952,0V716.49A2.383,2.383,0,0,1,1417.74,718.871Zm-.953-15.238a.476.476,0,0,1-.476-.477v-1.9a1.431,1.431,0,0,0-1.429-1.429h-3.809a1.431,1.431,0,0,0-1.429,1.429v1.9a.476.476,0,1,1-.952,0v-1.9a2.384,2.384,0,0,1,2.381-2.381h3.809a2.384,2.384,0,0,1,2.381,2.381v1.9A.476.476,0,0,1,1416.787,703.633Z" fill="#fff"/>
    </g>
    <g id="Grupo_3375" data-name="Grupo 3375">
      <path id="Trazado_8502" data-name="Trazado 8502" d="M1411.073,714.109a.476.476,0,0,1-.476-.476v-5.715a.476.476,0,1,1,.952,0v5.715A.476.476,0,0,1,1411.073,714.109Z" fill="#fff"/>
    </g>
    <g id="Grupo_3376" data-name="Grupo 3376">
      <path id="Trazado_8503" data-name="Trazado 8503" d="M1414.882,714.109a.476.476,0,0,1-.476-.476v-5.715a.477.477,0,0,1,.953,0v5.715A.477.477,0,0,1,1414.882,714.109Z" fill="#fff"/>
    </g>
  </g>
</svg>
